<svg xmlns="http://www.w3.org/2000/svg" width="1903.58" height="651.62" viewBox="0 0 1903.58 651.62"><defs><style>.cls-1{isolation:isolate;}.cls-2{fill:#ffc62a;}.cls-3{opacity:0;}.cls-4{fill:#ff9f09;}.cls-5{fill:#ffd45f;}</style></defs><title>Asset 2</title><g id="Layer_2" data-name="Layer 2"><g id="Layer_1-2" data-name="Layer 1"><g id="g1oshK6ScJ" class="cls-1"><g class="cls-1"><path d="M896.59,397.63H874V306.26H771.75v91.38H749.17V203.46h22.58v82.61H874V203.46h22.58Z"/><path d="M1072.17,324.72q0,35.59-17.93,55.58t-49.54,20q-19.52,0-34.66-9.16t-23.37-26.3q-8.24-17.13-8.23-40.11,0-35.59,17.8-55.45t49.41-19.86q30.55,0,48.54,20.32T1072.17,324.72Zm-110.9,0q0,27.89,11.16,42.5t32.8,14.61q21.65,0,32.87-14.54t11.22-42.57q0-27.76-11.22-42.17T1005,268.14q-21.65,0-32.67,14.21T961.27,324.72Z"/><path d="M1210.43,397.63V303.47q0-17.8-8.1-26.56T1177,268.14q-22.84,0-33.47,12.35t-10.62,40.77v76.37h-22V252.07h17.93l3.59,19.92h1.06a45,45,0,0,1,19-16.67,61.72,61.72,0,0,1,27.23-5.91q26.3,0,39.58,12.68t13.28,40.57v95Z"/><path d="M1339.25,400.29q-32.27,0-50.93-19.66T1269.66,326q0-35.19,17.33-55.91t46.55-20.72q27.36,0,43.3,18t15.94,47.48v13.95H1292.5q.66,25.63,12.95,38.91t34.6,13.28a117.22,117.22,0,0,0,46.48-9.83v19.66a116.59,116.59,0,0,1-22.11,7.24A124.28,124.28,0,0,1,1339.25,400.29Zm-6-132.41q-17.53,0-28,11.42T1293,310.91h76.1q0-20.85-9.3-31.94T1333.28,267.88Z"/><path d="M1407.25,252.07h23.64l31.88,83q10.49,28.42,13,41h1.06q1.72-6.77,7.24-23.18t36.06-100.87h23.64l-62.55,165.75q-9.3,24.57-21.71,34.86T1429,463a88.71,88.71,0,0,1-19.92-2.26V443.06a76.83,76.83,0,0,0,16.34,1.59q22.71,0,32.41-25.5l8.1-20.72Z"/><path d="M1725.74,298.69q0,48.08-26.1,73.51t-75.11,25.43h-53.79V203.46h59.5q45.29,0,70.39,25.1T1725.74,298.69Zm-23.91.8q0-38-19.06-57.24T1626.13,223h-32.8V378.11h27.49q40.37,0,60.7-19.86T1701.83,299.49Z"/><path d="M1769,203.46h54.85q38.65,0,55.91,11.55t17.27,36.52q0,17.27-9.63,28.49t-28.09,14.54v1.33q44.23,7.57,44.23,46.48,0,26-17.6,40.64t-49.21,14.61H1769Zm22.58,83.14h37.19q23.91,0,34.4-7.5t10.49-25.3q0-16.34-11.69-23.57T1824.82,223h-33.2Zm0,19.13v72.65h40.51q23.51,0,35.39-9.1t11.89-28.49q0-18.06-12.15-26.56t-37-8.5Z"/></g></g><g id="c15B6iEKp1"><path class="cls-2" d="M530.69,72.54,665.5,191.33,628.83,363.81,457.36,417.5,322.55,298.71l36.66-172.48Z"/></g><g id="c15B6iEKp1-2" data-name="c15B6iEKp1"><g class="cls-3"><polygon points="530.69 72.54 665.5 191.33 628.83 363.81 457.36 417.5 322.55 298.71 359.21 126.23 530.69 72.54"/></g><path class="cls-4" d="M457,419.19,320.9,299.26l37-174.19L531,70.86l136.1,119.93-.18.86L630.11,365Zm-132.8-121L457.72,415.82l169.83-53.18,36.31-170.76L530.33,74.23,360.49,127.4Z"/></g><g id="euBDa4zvb"><path class="cls-2" d="M209.79,1.68,344.6,120.47,307.93,293,136.46,346.65,1.65,227.85,38.31,55.37Z"/></g><g id="euBDa4zvb-2" data-name="euBDa4zvb"><g class="cls-3"><polygon points="209.79 1.68 344.6 120.47 307.93 292.96 136.46 346.65 1.65 227.85 38.31 55.37 209.79 1.68"/></g><path class="cls-4" d="M136.1,348.34,0,228.4,37,54.2,210.15,0l136.1,119.93-.18.86L309.21,294.13l-.84.26ZM3.3,227.31,136.82,345l169.83-53.18L343,121,209.43,3.37,39.59,56.54Z"/></g><g id="flgu2R8yC"><path class="cls-2" d="M312.28,305l134.81,118.8L410.43,596.24,239,649.93,104.15,531.14l36.66-172.49Z"/></g><g id="flgu2R8yC-2" data-name="flgu2R8yC"><g class="cls-3"><polygon points="312.28 304.96 447.09 423.76 410.43 596.24 238.96 649.93 104.15 531.14 140.81 358.65 312.28 304.96"/></g><path class="cls-4" d="M238.6,651.62,102.5,531.69l37-174.21.84-.26,172.28-53.94,136.1,119.94-37,174.2-.84.26Zm-132.8-121L239.32,648.25l169.83-53.18,36.3-170.76L311.92,306.65,142.09,359.82Z"/></g><g id="a28wrQ23WI"><path class="cls-5" d="M209.66,7.2,340,121.13,304.93,289.71,136.45,341.63a309.42,309.42,0,0,1-18.89-38.89q-7.87-19.65-17-39.71-16.32-50.91-19.61-62.36a151.09,151.09,0,0,1,100.91-186Q187,13.1,209.66,7.2Z"/></g><g id="albyuunIf"><path class="cls-5" d="M311.33,309.51,443,425.59l-35.9,168.46L240.65,647a204.72,204.72,0,0,1-21.43-39.44q-7.86-19.65-14.62-39.17-17.7-50.39-21-61.85A150.57,150.57,0,0,1,212.68,368.4c18.15-21.82,65.15-43.44,72.84-47.57Q293.21,316.69,311.33,309.51Z"/></g><g id="al0QXI8p"><path class="cls-5" d="M530.67,77.25,661.84,193.36l-35.9,166.9L457.45,413.19a250.82,250.82,0,0,1-21.42-41q-7.87-19.65-14.62-39.16-17.71-50.4-21-61.86A150.51,150.51,0,0,1,429.49,133.1c18.15-21.82,43.67-38,72.84-47.07Z"/></g></g></g></svg>