<?xml version="1.0" encoding="UTF-8" standalone="no"?>
<!-- Created with Inkscape (http://www.inkscape.org/) -->

<svg
   version="1.1"
   id="svg9"
   viewBox="0 0 380 150"
   width="380"
   height="150"
   xmlns="http://www.w3.org/2000/svg"
   xmlns:svg="http://www.w3.org/2000/svg">
   <style>
      .logo_text {
         font-family: Roboto,Helvetica,Arial,sans-serif;
         font-size: 50px;
         font-weight: 400;
         line-height: 48px;
         text-decoration-thickness: 100%;
      }
   </style>
         <path
            fill = "#f8b132"
            d="m 68.760458,141.23361 -9.15954,-5.31323 -4.002796,-10.76019 -4.002794,-10.76019 1.122221,-1.09414 c 1.406595,-1.3714 2.306301,-3.31768 2.315424,-5.00882 l 0.007,-1.30296 4.24,-1.3353 c 2.332,-0.73442 5.772825,-1.82229 7.646278,-2.41749 l 3.406279,-1.08219 0.959878,1.3618 c 1.12337,1.59373 3.342115,3.20528 5.359229,3.89258 L 78.08,107.90016 v 19.32992 c 0,10.63146 -0.036,19.32696 -0.08,19.32334 -0.044,-0.004 -4.201795,-2.39754 -9.239542,-5.31981 z M 81.92,127.2365 v -19.38431 l 0.88,-0.21187 c 1.604074,-0.38621 3.771875,-1.64749 5.080128,-2.95574 l 1.290915,-1.29092 7.9224,3.74317 7.922407,3.74317 0.0792,1.76 c 0.10255,2.278 1.03123,4.31771 2.70035,5.93092 l 1.33565,1.29093 -1.89824,6.50577 c -1.04403,3.57818 -2.01852,6.6209 -2.16554,6.76162 -0.14702,0.14072 -4.8033,2.87792 -10.3473,6.08268 -5.544,3.20476 -10.692,6.18279 -11.44,6.61786 l -1.36,0.79103 z m -42.652221,-3.04727 c -8.974709,-5.18807 -14.492493,-8.55728 -14.240001,-8.69508 0.52236,-0.28507 13.792606,-3.81415 14.342209,-3.81415 0.224739,0 0.890819,0.56334 1.480173,1.25187 1.288982,1.50588 3.204214,2.47935 5.450435,2.77032 1.089939,0.14119 1.732131,0.39427 1.868759,0.73646 1.290249,3.23145 5.899171,15.89872 5.835155,16.03749 -0.04648,0.10076 -6.67801,-3.62835 -14.73673,-8.28691 z m 71.507351,3.88435 c 2.31089,-7.91114 2.103,-7.43327 3.23515,-7.43671 2.48144,-0.008 6.30413,-2.906 6.79796,-5.15439 l 0.20261,-0.92248 h 8.03858 c 4.56182,0 7.90709,0.12009 7.73457,0.27765 -0.26365,0.24079 -24.09642,14.03889 -25.95097,15.02444 l -0.68697,0.36507 z M 21.44,99.790128 V 87.191782 l 13.498883,-7.576144 13.49888,-7.576147 1.19568,0.946995 c 2.758461,2.184743 6.078291,2.941808 9.07721,2.07 1.010976,-0.2939 1.911379,-0.46112 2.000899,-0.3716 0.08952,0.08952 2.655434,3.446039 5.702035,7.458938 5.175312,6.816774 5.50857,7.338227 5.072007,7.936176 -1.217543,1.667622 -2.145031,4.19545 -2.291751,6.246058 l -0.153568,2.146294 -7.528051,2.391708 -7.528048,2.39172 -1.15209,-1.27916 c -4.309622,-4.78495 -12.520937,-2.460146 -13.83831,3.91793 l -0.386538,1.87143 -8.16684,2.15132 c -4.491762,1.18322 -8.354391,2.22328 -8.583619,2.31124 C 21.518756,112.35825 21.44,110.00784 21.44,99.790128 Z m 99.05721,9.176402 c -1.01886,-2.08249 -2.61344,-3.4877 -4.77083,-4.20427 -2.69404,-0.89482 -6.33646,-0.0934 -8.01598,1.76369 -0.33527,0.37073 -0.76727,0.67042 -0.96,0.66599 -0.19272,-0.004 -3.8064,-1.63299 -8.0304,-3.61902 L 91.04,99.961968 91.00364,97.260982 C 90.979802,95.488653 90.773475,94.08784 90.403584,93.186723 90.093549,92.431421 89.89391,91.768029 89.959942,91.712515 90.025974,91.657002 94.256,88.332819 99.36,84.325443 c 5.104,-4.007376 9.42672,-7.40199 9.60604,-7.54359 0.17932,-0.141597 1.11818,-0.03697 2.08636,0.232512 2.1068,0.5864 3.87628,0.241878 5.41722,-1.054733 l 0.97871,-0.823536 10.47584,3.842381 10.47583,3.842377 0.0834,13.949575 0.0834,13.949571 h -8.60581 -8.60582 z M 85.849376,87.732413 C 84.991386,87.190912 84.50015,86.646563 84.502582,86.24 c 0.0022,-0.352 1.335959,-6.822918 2.964112,-14.379814 l 2.960282,-13.739818 2.292243,-0.563459 C 96.740941,56.568326 99.294058,54.338474 100.45569,50.8 l 0.39394,-1.2 h 17.94852 c 9.87168,0 17.88313,0.06539 17.80321,0.145309 -0.0799,0.07992 -4.73848,3.808166 -10.35234,8.284985 l -10.20703,8.139677 -1.26123,-0.444985 c -1.69464,-0.597904 -2.99789,-0.550304 -4.57791,0.167212 -2.28266,1.036602 -3.39803,3.024992 -3.45527,6.159789 l -0.0276,1.510727 -9.594035,7.538643 c -5.276717,4.146253 -9.668717,7.52623 -9.76,7.511056 -0.09128,-0.01517 -0.773747,-0.411171 -1.516592,-0.88 z M 69.373504,79.6 c -5.603206,-7.387264 -5.63953,-7.44567 -5.12432,-8.24 1.457946,-2.247818 1.800509,-3.365664 1.81417,-5.92 0.01162,-2.173482 -0.121895,-2.836566 -0.884333,-4.39176 C 64.685104,60.040774 63.697373,58.716925 62.984058,58.106352 61.543075,56.872928 59.221638,55.68 58.262374,55.68 c -0.343532,0 -0.715257,-0.146682 -0.826054,-0.325955 -0.142128,-0.229971 -2.090237,-20.367274 -2.712608,-28.039809 -0.0104,-0.128164 22.302464,-12.885064 22.689437,-12.9722 0.334909,-0.07541 1.472614,3.029155 4.360153,11.897964 l 3.907002,12 -1.700624,1.528189 c -2.004896,1.801613 -3.240592,4.138608 -3.532717,6.681213 -0.431843,3.758675 1.760458,8.092236 5.020752,9.924627 0.699277,0.393014 1.21808,0.865635 1.152903,1.050272 -0.06518,0.184633 -1.473482,6.707091 -3.129562,14.494345 L 80.48,86.077293 79.2,86.092685 c -0.704,0.0085 -1.856,0.222912 -2.56,0.476537 -0.704,0.253623 -1.357238,0.463303 -1.451645,0.465952 -0.0944,0.0026 -2.711085,-3.34318 -5.814851,-7.43518 z M 21.44,66.086429 V 49.544384 l 5.04,2.618634 c 2.772,1.440249 8.372886,4.3579 12.446413,6.48367 l 7.406409,3.865034 -0.01155,2.58414 c -0.0064,1.421277 0.04476,2.780442 0.113591,3.020372 0.08309,0.289622 -3.961661,2.746438 -12.034845,7.310067 C 27.712,79.206906 22.06,82.374006 21.84,82.464301 21.523041,82.59439 21.44,79.194288 21.44,66.086429 Z m 107.36,9.059168 c -5.28,-1.93177 -9.70285,-3.611847 -9.82855,-3.733504 -0.1257,-0.121655 -0.2697,-0.667623 -0.32,-1.213258 -0.0873,-0.946742 0.35938,-1.353421 9.77614,-8.901197 5.42717,-4.350022 9.92886,-7.847856 10.00375,-7.77296 0.0749,0.0749 0.0985,5.760509 0.0524,12.634698 L 138.4,78.657904 Z M 35.687389,52.54136 C 28.731325,48.927078 23.04,45.884662 23.04,45.780435 c 0,-0.421318 27.881952,-16.279211 27.991331,-15.920102 0.0636,0.208817 0.56233,5.635667 1.108282,12.059667 0.545952,6.424 1.067046,12.184 1.157987,12.8 0.1584,1.072954 0.106515,1.143971 -1.235206,1.690637 -0.770304,0.313849 -1.924141,1.050227 -2.564084,1.63639 l -1.163532,1.065754 z M 100.3504,43.838106 C 99.079219,40.303082 95.326806,37.517757 91.412246,37.203533 L 89.381053,37.04049 85.649597,25.507843 c -2.052304,-6.342956 -3.69504,-11.561038 -3.650528,-11.595738 0.09089,-0.07085 53.948601,31.048903 54.240821,31.341121 0.10273,0.102726 -7.80078,0.186774 -17.56334,0.186774 h -17.75012 z" />
         <text x="150" y="97" class="logo_text">HoneyDB</text>
</svg>
